<svg xmlns="http://www.w3.org/2000/svg" xmlns:svg="http://www.w3.org/2000/svg" xmlns:xlink="http://www.w3.org/1999/xlink" id="svg2" width="128" height="128" version="1.0"><metadata id="metadata7"/><defs id="defs5"><linearGradient id="linearGradient5880"><stop style="stop-color:#fff;stop-opacity:1" id="stop5882" offset="0"/><stop style="stop-color:#fff;stop-opacity:0" id="stop5884" offset="1"/></linearGradient><linearGradient id="linearGradient5515"><stop style="stop-color:#fff;stop-opacity:0" id="stop5517" offset="0"/><stop id="stop5523" offset=".325" style="stop-color:#fff;stop-opacity:1"/><stop style="stop-color:#fff;stop-opacity:0" id="stop5519" offset="1"/></linearGradient><linearGradient id="linearGradient5267"><stop style="stop-color:#fff;stop-opacity:1" id="stop5269" offset="0"/><stop id="stop5275" offset=".5" style="stop-color:#fff;stop-opacity:.50359714"/><stop style="stop-color:#fff;stop-opacity:1" id="stop5271" offset="1"/></linearGradient><linearGradient id="linearGradient5247"><stop style="stop-color:#fff;stop-opacity:1" id="stop5249" offset="0"/><stop id="stop5255" offset=".5" style="stop-color:#fff;stop-opacity:.79136693"/><stop style="stop-color:#fff;stop-opacity:0" id="stop5251" offset="1"/></linearGradient><linearGradient id="linearGradient5213"><stop style="stop-color:#fff;stop-opacity:1" id="stop5215" offset="0"/><stop style="stop-color:#fff;stop-opacity:0" id="stop5217" offset="1"/></linearGradient><linearGradient id="linearGradient5131"><stop style="stop-color:#767676;stop-opacity:1" id="stop5133" offset="0"/><stop style="stop-color:#767676;stop-opacity:0" id="stop5135" offset="1"/></linearGradient><linearGradient id="linearGradient4993"><stop style="stop-color:#fff;stop-opacity:1" id="stop4995" offset="0"/><stop style="stop-color:#fff;stop-opacity:0" id="stop4997" offset="1"/></linearGradient><linearGradient id="linearGradient4913"><stop style="stop-color:#fff;stop-opacity:1" id="stop4915" offset="0"/><stop style="stop-color:#fff;stop-opacity:0" id="stop4917" offset="1"/></linearGradient><linearGradient id="linearGradient4893"><stop style="stop-color:#000;stop-opacity:0" id="stop4895" offset="0"/><stop id="stop4909" offset=".611" style="stop-color:#000;stop-opacity:0"/><stop id="stop4905" offset=".685" style="stop-color:#000;stop-opacity:.37769786"/><stop style="stop-color:#000;stop-opacity:0" id="stop4907" offset=".75"/><stop style="stop-color:#000;stop-opacity:0" id="stop4897" offset="1"/></linearGradient><linearGradient id="linearGradient3285"><stop style="stop-color:#474747;stop-opacity:1" id="stop3287" offset="0"/><stop style="stop-color:#474747;stop-opacity:0" id="stop3289" offset="1"/></linearGradient><linearGradient id="linearGradient3184"><stop style="stop-color:#fcfcfc;stop-opacity:1" id="stop3186" offset="0"/><stop style="stop-color:silver;stop-opacity:1" id="stop3188" offset="1"/></linearGradient><linearGradient id="linearGradient3152"><stop style="stop-color:#a2a2a2;stop-opacity:1" id="stop3154" offset="0"/><stop id="stop3166" offset=".278" style="stop-color:#b7b7b7;stop-opacity:1"/><stop id="stop3160" offset=".348" style="stop-color:#f2f2f2;stop-opacity:1"/><stop style="stop-color:#858585;stop-opacity:1" id="stop3162" offset=".691"/><stop id="stop3164" offset=".767" style="stop-color:#8f8f8f;stop-opacity:1"/><stop style="stop-color:#a4a4a4;stop-opacity:1" id="stop3182" offset=".849"/><stop style="stop-color:#757575;stop-opacity:1" id="stop3178" offset=".884"/><stop id="stop3180" offset=".913" style="stop-color:#989898;stop-opacity:1"/><stop style="stop-color:#acacac;stop-opacity:1" id="stop3156" offset="1"/></linearGradient><linearGradient id="linearGradient10207"><stop id="stop10209" offset="0" style="stop-color:#b4b4b4;stop-opacity:1"/><stop style="stop-color:#d1d1d1;stop-opacity:1" id="stop4937" offset=".5"/><stop id="stop10211" offset="1" style="stop-color:#fafafa;stop-opacity:1"/></linearGradient><linearGradient id="linearGradient3752"><stop id="stop3754" offset="0" style="stop-color:#000;stop-opacity:1"/><stop id="stop3756" offset="1" style="stop-color:#000;stop-opacity:0"/></linearGradient><radialGradient id="radialGradient4903" cx="-1.249" cy="23.725" r="60" fx="-1.249" fy="61.404" gradientTransform="matrix(1.3581356,1.5026073,-1.6333333,1.4762927,-61.051702,-44.648234)" gradientUnits="userSpaceOnUse" xlink:href="#linearGradient4893"/><radialGradient id="radialGradient4925" cx="-84" cy="64" r="60" fx="-84" fy="64" gradientUnits="userSpaceOnUse" xlink:href="#linearGradient4913"/><mask id="mask4921" maskUnits="userSpaceOnUse"><path style="opacity:1;fill:url(#radialGradient4925);fill-opacity:1;stroke:none;stroke-width:3;stroke-linecap:round;stroke-linejoin:round;stroke-miterlimit:4;stroke-dasharray:none;stroke-dashoffset:1.08779998;stroke-opacity:1" id="path4923" d="M -83.999999,4 C -87.273852,4.0172764 -89.375767,4.1739184 -92.624999,4.625 C -93.586949,4.778184 -94.374999,5.4055494 -94.374999,6.375 L -94.968749,15.8125 C -95.057257,16.767694 -95.725392,17.39683 -96.437499,17.625 C -96.45933,17.631995 -96.478095,17.650033 -96.499999,17.65625 C -100.61684,18.761419 -104.52293,20.378352 -108.125,22.46875 C -108.77655,22.750681 -109.61713,22.733687 -110.3125,22.15625 L -117.40625,15.90625 C -118.09175,15.220752 -119.08648,15.33437 -119.875,15.90625 C -122.49151,17.884842 -124.11032,19.259755 -126.4375,21.5625 C -128.74024,23.889683 -130.11516,25.508484 -132.09375,28.125 C -132.66563,28.913521 -132.77925,29.908252 -132.09375,30.59375 L -125.84375,37.6875 C -125.37003,38.257979 -125.10755,38.996346 -125.375,39.53125 L -125.4375,39.65625 C -127.68302,43.45585 -129.43236,47.592563 -130.5625,51.96875 C -130.57434,51.989388 -130.58117,52.010911 -130.59375,52.03125 C -130.91096,52.544091 -131.44914,52.962834 -132.1875,53.03125 L -141.625,53.625 C -142.59444,53.625 -143.22181,54.41305 -143.375,55.375 C -143.82608,58.624232 -143.98272,60.726147 -144,64 C -143.98272,67.273853 -143.82608,69.375768 -143.375,72.625 C -143.22181,73.586946 -142.59444,74.375 -141.625,74.375 L -132.1875,74.96875 C -131.32015,75.04912 -130.74406,75.615317 -130.46875,76.25 C -129.36552,80.393354 -127.7025,84.314208 -125.59375,87.9375 C -125.22083,88.606007 -125.21212,89.551864 -125.84375,90.3125 L -132.09375,97.40625 C -132.77925,98.091746 -132.66563,99.086477 -132.09375,99.875 C -130.11516,102.49151 -128.74024,104.11031 -126.4375,106.4375 C -124.11032,108.74024 -122.49152,110.11516 -119.875,112.09375 C -119.08648,112.66563 -118.09175,112.77925 -117.40625,112.09375 L -110.3125,105.84375 C -109.55186,105.21212 -108.60601,105.22083 -107.9375,105.59375 L -107.84375,105.5 C -104.31609,107.51717 -100.51556,109.10952 -96.499999,110.1875 L -96.499999,110.34375 C -95.763598,110.55276 -95.05997,111.20302 -94.968749,112.1875 L -94.374999,121.625 C -94.374999,122.59444 -93.586949,123.22181 -92.624999,123.375 C -89.375767,123.82608 -87.273852,123.98272 -83.999999,124 C -80.726146,123.98272 -78.624231,123.82608 -75.374999,123.375 C -74.413053,123.22181 -73.624999,122.59444 -73.624999,121.625 L -73.031249,112.1875 C -72.940025,111.20302 -72.2364,110.55276 -71.499999,110.34375 L -71.499999,110.1875 C -67.484442,109.10952 -63.683904,107.51717 -60.156249,105.5 L -60.062499,105.59375 C -59.393992,105.22083 -58.448137,105.21212 -57.687499,105.84375 L -50.593749,112.09375 C -49.908246,112.77926 -48.913512,112.66564 -48.124999,112.09375 C -45.508489,110.11516 -43.889689,108.74024 -41.562499,106.4375 C -39.259759,104.11031 -37.884839,102.49151 -35.906249,99.875 C -35.334359,99.086487 -35.220739,98.091755 -35.906249,97.40625 L -42.156249,90.3125 C -42.787879,89.55186 -42.779169,88.606007 -42.406249,87.9375 C -40.297499,84.314208 -38.634479,80.393354 -37.531249,76.25 C -37.255939,75.615317 -36.679849,75.04912 -35.812499,74.96875 L -26.374999,74.375 C -25.405549,74.375 -24.778179,73.586946 -24.624999,72.625 C -24.173919,69.375768 -24.017279,67.273853 -23.999999,64 C -24.017279,60.726147 -24.173919,58.624232 -24.624999,55.375 C -24.778179,54.41305 -25.405549,53.625 -26.374999,53.625 L -35.812499,53.03125 C -36.550859,52.962834 -37.089039,52.544091 -37.406249,52.03125 C -37.411879,52.009328 -37.431839,51.99066 -37.437499,51.96875 C -38.567639,47.592563 -40.588709,43.603839 -42.562499,39.65625 L -42.624999,39.53125 C -42.892449,38.996346 -42.629969,38.257977 -42.156249,37.6875 L -35.906249,30.59375 C -35.220739,29.908244 -35.334369,28.913516 -35.906249,28.125 C -37.884839,25.508484 -39.259759,23.88968 -41.562499,21.5625 C -43.889679,19.259753 -45.508479,17.884841 -48.124999,15.90625 C -48.913515,15.334366 -49.908243,15.220745 -50.593749,15.90625 L -57.687499,22.15625 C -58.382875,22.733685 -59.223454,22.750682 -59.874999,22.46875 C -63.477074,20.378352 -67.383162,18.761419 -71.499999,17.65625 C -71.521903,17.650033 -71.540668,17.631995 -71.562499,17.625 C -72.274606,17.39683 -72.942738,16.767694 -73.031249,15.8125 L -73.624999,6.375 C -73.624999,5.4055494 -74.413053,4.778184 -75.374999,4.625 C -78.624231,4.1739184 -80.726146,4.0172764 -83.999999,4 z M -83.999999,48 C -75.168,47.999999 -67.999999,55.168 -67.999999,64 C -68,72.832 -75.168,80 -83.999999,80 C -92.831999,80 -99.999999,72.832 -99.999999,64 C -99.999998,55.167999 -92.831998,48 -83.999999,48 z"/></mask><radialGradient id="radialGradient5008" cx="94.819" cy="67.895" r="43.734" fx="94.819" fy="67.895" gradientTransform="matrix(1,0,0,0.5780636,0,-101.84696)" gradientUnits="userSpaceOnUse" xlink:href="#linearGradient4993"/><filter id="filter5054"><feGaussianBlur id="feGaussianBlur5056" stdDeviation="1.283"/></filter><clipPath id="clipPath5073" clipPathUnits="userSpaceOnUse"><path id="path5075" d="M 76.90625,-70.062499 C 73.993994,-66.090403 69.299199,-63.499999 64,-63.499999 C 59.104212,-63.499999 54.716932,-65.68865 51.78125,-69.156249 C 28.641624,-73.441819 25.163605,-55.116541 20.28125,-38.406249 C 20.690082,-37.972249 21.088367,-37.541669 21.5625,-37.062499 C 23.88968,-34.759759 25.50848,-33.384839 28.125,-31.406249 C 28.91352,-30.834369 29.90825,-30.720749 30.59375,-31.406249 L 37.6875,-37.656249 C 38.44814,-38.287879 39.39399,-38.279169 40.0625,-37.906249 L 40.15625,-37.999999 C 43.68391,-35.982829 47.484439,-34.390479 51.5,-33.312499 L 51.5,-33.156249 C 52.236402,-32.947239 52.940029,-32.296979 53.03125,-31.312499 L 53.625,-21.874999 C 53.625001,-20.905559 54.41305,-20.278189 55.375,-20.124999 C 58.624233,-19.673919 60.726147,-19.517279 64,-19.499999 C 67.273854,-19.517279 69.375768,-19.673919 72.625,-20.124999 C 73.586947,-20.278189 74.375,-20.905559 74.375,-21.874999 L 74.96875,-31.312499 C 75.059975,-32.296979 75.763599,-32.947239 76.5,-33.156249 L 76.5,-33.312499 C 80.515558,-34.390479 84.316095,-35.982829 87.84375,-37.999999 L 87.9375,-37.906249 C 88.606008,-38.279169 89.551862,-38.287879 90.3125,-37.656249 L 97.40625,-31.406249 C 98.091754,-30.720739 99.086487,-30.834359 99.875,-31.406249 C 102.49151,-33.384839 104.11031,-34.759759 106.4375,-37.062499 C 106.92292,-37.553069 107.3327,-37.993909 107.75,-38.437499 C 111.67353,-45.524173 82.140773,-81.872038 76.90625,-70.062499 z" clip-path="none" mask="none" style="opacity:.43122678;fill:url(#radialGradient5077);fill-opacity:1;stroke:none;stroke-width:3;stroke-linecap:round;stroke-linejoin:round;stroke-miterlimit:4;stroke-dasharray:none;stroke-dashoffset:1.08779998;stroke-opacity:1"/></clipPath><radialGradient id="radialGradient5077" cx="94.819" cy="67.895" r="43.734" fx="94.819" fy="67.895" gradientTransform="matrix(1,0,0,0.5780636,0,-101.84696)" gradientUnits="userSpaceOnUse" xlink:href="#linearGradient4993"/><radialGradient id="radialGradient5081" cx="94.819" cy="67.895" r="43.734" fx="94.819" fy="67.895" gradientTransform="matrix(1,0,0,0.5780636,0,-101.84696)" gradientUnits="userSpaceOnUse" xlink:href="#linearGradient4993"/><radialGradient id="radialGradient5177" cx="-1.249" cy="23.725" r="60" fx="-1.249" fy="61.404" gradientTransform="matrix(1.3581356,1.5026073,-1.6333333,1.4762927,-61.051702,-44.648234)" gradientUnits="userSpaceOnUse" xlink:href="#linearGradient4893"/><radialGradient id="radialGradient5179" cx="94.819" cy="67.895" r="43.734" fx="94.819" fy="67.895" gradientTransform="matrix(1,0,0,0.5780636,0,-101.84696)" gradientUnits="userSpaceOnUse" xlink:href="#linearGradient4993"/><radialGradient id="radialGradient5181" cx="94.819" cy="67.895" r="43.734" fx="94.819" fy="67.895" gradientTransform="matrix(1,0,0,0.5780636,0,-101.84696)" gradientUnits="userSpaceOnUse" xlink:href="#linearGradient4993"/><linearGradient id="linearGradient5219" x1="62.937" x2="63.021" y1="3.85" y2="9.852" gradientTransform="translate(-0.02961322,-0.4585689)" gradientUnits="userSpaceOnUse" xlink:href="#linearGradient5213"/><radialGradient id="radialGradient5253" cx="54.673" cy="6.85" r="1.289" fx="54.046" fy="6.341" gradientTransform="matrix(1,0,0,1.9019608,0,-6.1783597)" gradientUnits="userSpaceOnUse" xlink:href="#linearGradient5247"/><radialGradient id="radialGradient5263" cx="54.673" cy="6.85" r="1.289" fx="54.046" fy="6.341" gradientTransform="matrix(1,0,0,1.9019608,0,-6.1783597)" gradientUnits="userSpaceOnUse" xlink:href="#linearGradient5247"/><linearGradient id="linearGradient5273" x1="43.714" x2="18.252" y1="11.362" y2="21.729" gradientUnits="userSpaceOnUse" xlink:href="#linearGradient5267"/><radialGradient id="radialGradient5315" cx="54.673" cy="6.85" r="1.289" fx="54.046" fy="6.341" gradientTransform="matrix(1,0,0,1.9019608,0,-6.1783597)" gradientUnits="userSpaceOnUse" xlink:href="#linearGradient5247"/><linearGradient id="linearGradient5337" x1="52.722" x2="38.628" y1="17.797" y2="22.658" gradientUnits="userSpaceOnUse" xlink:href="#linearGradient5267"/><radialGradient id="radialGradient5339" cx="54.673" cy="6.85" r="1.289" fx="54.046" fy="6.341" gradientTransform="matrix(1,0,0,1.9019608,0,-6.1783597)" gradientUnits="userSpaceOnUse" xlink:href="#linearGradient5247"/><radialGradient id="radialGradient5343" cx="54.673" cy="6.85" r="1.289" fx="54.673" fy="6.85" gradientTransform="matrix(1,0,0,1.9019608,0,-6.1783597)" gradientUnits="userSpaceOnUse" xlink:href="#linearGradient3285"/><radialGradient id="radialGradient5511" cx="54.673" cy="6.85" r="1.289" fx="54.673" fy="6.85" gradientTransform="matrix(1,0,0,1.9019608,0,-6.1783597)" gradientUnits="userSpaceOnUse" xlink:href="#linearGradient3285"/><linearGradient id="linearGradient5521" x1="114.296" x2="114.296" y1="49.937" y2="61.877" gradientUnits="userSpaceOnUse" xlink:href="#linearGradient5515"/><linearGradient id="linearGradient5587" x1="114.296" x2="114.296" y1="49.937" y2="61.877" gradientUnits="userSpaceOnUse" xlink:href="#linearGradient5515"/><linearGradient id="linearGradient5886" x1="63.993" x2="63.993" y1="80.37" y2="66.132" gradientUnits="userSpaceOnUse" xlink:href="#linearGradient5880"/><linearGradient id="linearGradient3118" x1="63.993" x2="63.993" y1="80.37" y2="66.132" gradientUnits="userSpaceOnUse" xlink:href="#linearGradient5880"/><filter id="filter3888" width="1" height="1" x="0" y="0" color-interpolation-filters="sRGB"><feColorMatrix id="feColorMatrix3890" type="hueRotate" values="0"/><feColorMatrix id="feColorMatrix3892" type="saturate" values="1"/><feColorMatrix id="feColorMatrix3894" result="fbSourceGraphic" type="matrix" values="2 -1 0 0 0 0 2 -1 0 0 -1 0 2 0 0 0 0 0 1 0"/><feColorMatrix id="feColorMatrix3896" in="fbSourceGraphic" result="fbSourceGraphicAlpha" values="0 0 0 -1 0 0 0 0 -1 0 0 0 0 -1 0 0 0 0 1 0"/><feColorMatrix id="feColorMatrix3898" in="fbSourceGraphic" result="result2" type="saturate" values="0"/><feFlood id="feFlood3900" flood-color="#A04300" flood-opacity="1" result="result1"/><feBlend id="feBlend3902" in="result2" in2="result1" mode="multiply" result="result5"/><feBlend id="feBlend3904" in2="result2" mode="screen" result="result3"/><feComposite id="feComposite3906" in2="result2" k2="1" operator="arithmetic" result="result4"/><feComposite id="feComposite3908" in="result4" in2="fbSourceGraphicAlpha" operator="in"/></filter><linearGradient id="linearGradient3917" x1="64" x2="64" y1="81.5" y2="12.678" gradientTransform="translate(4.0442338,1.2835701)" gradientUnits="userSpaceOnUse" spreadMethod="reflect" xlink:href="#linearGradient10207"/><radialGradient id="radialGradient3919" cx="-1.249" cy="23.725" r="60" fx="-1.249" fy="61.404" gradientTransform="matrix(1.3581356,1.5026073,-1.6333333,1.4762927,-61.051702,-44.648234)" gradientUnits="userSpaceOnUse" xlink:href="#linearGradient4893"/><radialGradient id="radialGradient3921" cx="94.819" cy="67.895" r="43.734" fx="94.819" fy="67.895" gradientTransform="matrix(1,0,0,0.5780636,0,-101.84696)" gradientUnits="userSpaceOnUse" xlink:href="#linearGradient4993"/><radialGradient id="radialGradient3923" cx="94.819" cy="67.895" r="43.734" fx="94.819" fy="67.895" gradientTransform="matrix(1,0,0,0.5780636,0,-101.84696)" gradientUnits="userSpaceOnUse" xlink:href="#linearGradient4993"/><radialGradient id="radialGradient3925" cx="-84" cy="64" r="60" fx="-84" fy="64" gradientTransform="translate(152.04423,1.2835701)" gradientUnits="userSpaceOnUse" xlink:href="#linearGradient4913"/><linearGradient id="linearGradient3927" x1="283.5" x2="282.5" y1="-52.5" y2="128.5" gradientTransform="translate(-225.98644,40.75048)" gradientUnits="userSpaceOnUse" xlink:href="#linearGradient5131"/><linearGradient id="linearGradient10207-7"><stop style="stop-color:#a2a2a2;stop-opacity:1" id="stop10209-4" offset="0"/><stop style="stop-color:#fff;stop-opacity:1" id="stop10211-0" offset="1"/></linearGradient><linearGradient id="XMLID_12_" x1="96" x2="88" y1="104" y2="96" gradientUnits="userSpaceOnUse"><stop style="stop-color:#888a85" id="stop83" offset="0"/><stop style="stop-color:#8c8e89" id="stop85" offset=".007"/><stop style="stop-color:#abaca9" id="stop87" offset=".067"/><stop style="stop-color:#c5c6c4" id="stop89" offset=".135"/><stop style="stop-color:#dbdbda" id="stop91" offset=".265"/><stop style="stop-color:#ebebeb" id="stop93" offset=".376"/><stop style="stop-color:#f7f7f6" id="stop95" offset=".487"/><stop style="stop-color:#fdfdfd" id="stop97" offset=".632"/><stop style="stop-color:#fff" id="stop99" offset="1"/></linearGradient><radialGradient id="XMLID_8_" cx="102" cy="112.305" r="139.559" gradientUnits="userSpaceOnUse"><stop style="stop-color:#b7b8b9;stop-opacity:1" id="stop41" offset="0"/><stop style="stop-color:#ececec" id="stop47" offset=".189"/><stop style="stop-color:#fafafa" id="stop49" offset=".257"/><stop style="stop-color:#fff" id="stop51" offset=".301"/><stop style="stop-color:#fafafa" id="stop53" offset=".531"/><stop style="stop-color:#ebecec" id="stop55" offset=".845"/><stop style="stop-color:#e1e2e3" id="stop57" offset="1"/></radialGradient><filter id="filter6697" width="1.384" height="1.384" x="-.192" y="-.192"><feGaussianBlur id="feGaussianBlur6699" stdDeviation="1.945"/></filter><clipPath id="clipPath7084" clipPathUnits="userSpaceOnUse"><path style="fill:#000;fill-opacity:1;fill-rule:evenodd;stroke:none;stroke-width:1px;stroke-linecap:butt;stroke-linejoin:miter;stroke-opacity:1" id="path7086" d="M 72,88 L 40,120 L 32,120 L 32,80 L 72,80 L 72,88 z"/></clipPath><radialGradient id="radialGradient9437" cx="102" cy="112.305" r="139.559" fx="102" fy="112.305" gradientTransform="matrix(1.295034,1.3831431e-7,-1.3627884e-7,1.2946006,-30.093452,-33.119615)" gradientUnits="userSpaceOnUse" xlink:href="#XMLID_8_"/><linearGradient id="linearGradient2201" x1="-178" x2="-178" y1="-228.5" y2="-304.615" gradientTransform="matrix(1,0,0,0.7368421,242.00093,284.36842)" gradientUnits="userSpaceOnUse" xlink:href="#linearGradient2927"/><linearGradient id="linearGradient2197" x1="-168.992" x2="-168.992" y1="-300.5" y2="-296.484" gradientTransform="translate(242.00093,364.5)" gradientUnits="userSpaceOnUse" xlink:href="#linearGradient2822"/><linearGradient id="linearGradient2925" x1="-178" x2="-178" y1="-228.5" y2="-304.615" gradientTransform="translate(242.00093,332.5)" gradientUnits="userSpaceOnUse" xlink:href="#linearGradient2927"/><linearGradient id="linearGradient2923" x1="-168.992" x2="-168.992" y1="-300.5" y2="-296.484" gradientTransform="translate(242.00093,332.5)" gradientUnits="userSpaceOnUse" xlink:href="#linearGradient2822"/><linearGradient id="linearGradient3109" x1="122.744" x2="122.744" y1="96" y2="20" gradientTransform="matrix(1.0033808,0,0,1,-8.2378,8)" gradientUnits="userSpaceOnUse" xlink:href="#linearGradient2937"/><linearGradient id="XMLID_6_" x1="72.001" x2="72.001" y1="96" y2="0" gradientTransform="translate(-6.999995,8)" gradientUnits="userSpaceOnUse"><stop style="stop-color:#00479e;stop-opacity:1" id="stop7" offset="0"/><stop style="stop-color:#2c72c7;stop-opacity:1" id="stop9" offset=".077"/><stop style="stop-color:#6ea1df;stop-opacity:1" id="stop11" offset=".586"/><stop style="stop-color:#adcbee;stop-opacity:1" id="stop13" offset=".965"/></linearGradient><filter id="filter2807" width="1.051" height="1.768" x="-.026" y="-.384"><feGaussianBlur id="feGaussianBlur2809" stdDeviation="1.28"/></filter><linearGradient id="XMLID_9_" x1="71.999" x2="71.999" y1="14.258" y2="19.958" gradientTransform="matrix(1.0033404,0,0,1,-8.2374684,8)" gradientUnits="userSpaceOnUse"><stop style="stop-color:#71a8f5;stop-opacity:0" id="stop46" offset=".25"/><stop style="stop-color:#0057ae;stop-opacity:1" id="stop48" offset="1"/></linearGradient><linearGradient id="linearGradient2822"><stop style="stop-color:#fff;stop-opacity:1" id="stop2824" offset="0"/><stop style="stop-color:#fff;stop-opacity:0" id="stop2826" offset="1"/></linearGradient><linearGradient id="linearGradient2927" x1="-178" x2="-178" y1="-228.394" y2="-304.615" gradientTransform="translate(242.00093,332.5)" gradientUnits="userSpaceOnUse"><stop style="stop-color:#cfe7ff;stop-opacity:1" id="stop2929" offset="0"/><stop style="stop-color:#71a8f5;stop-opacity:1" id="stop2931" offset=".1"/><stop style="stop-color:#2c72c7;stop-opacity:1" id="stop2933" offset="1"/></linearGradient><linearGradient id="linearGradient2937" x1="122.744" x2="122.392" y1="96.722" y2="20.044" gradientTransform="matrix(1.0033808,0,0,1,-8.2378002,8)" gradientUnits="userSpaceOnUse"><stop style="stop-color:#72b4f4;stop-opacity:1" id="stop2939" offset="0"/><stop style="stop-color:#b3d9ff;stop-opacity:1" id="stop2941" offset=".131"/><stop style="stop-color:#b3d9ff;stop-opacity:1" id="stop2943" offset=".346"/><stop style="stop-color:#71a8f5;stop-opacity:1" id="stop2945" offset=".72"/><stop style="stop-color:#508ed9;stop-opacity:1" id="stop2947" offset="1"/></linearGradient><linearGradient id="linearGradient5085"><stop style="stop-color:#fff;stop-opacity:1" id="stop5087" offset="0"/><stop style="stop-color:#fff;stop-opacity:.60085839" id="stop5089" offset="1"/></linearGradient><linearGradient id="linearGradient2793"><stop style="stop-color:#fff;stop-opacity:1" id="stop2795" offset="0"/><stop style="stop-color:#fff;stop-opacity:0" id="stop2797" offset="1"/></linearGradient><linearGradient id="linearGradient2068"><stop style="stop-color:#000;stop-opacity:.25" id="stop2070" offset="0"/><stop style="stop-color:#000;stop-opacity:0" id="stop2072" offset="1"/></linearGradient><linearGradient id="linearGradient1733"><stop style="stop-color:#fff;stop-opacity:.76991153" id="stop1734" offset="0"/><stop style="stop-color:#fff;stop-opacity:0" id="stop1735" offset="1"/></linearGradient><linearGradient id="linearGradient1726"><stop style="stop-color:#fffb00;stop-opacity:1" id="stop1727" offset="0"/><stop style="stop-color:#ff9c00;stop-opacity:1" id="stop1728" offset="1"/></linearGradient><linearGradient id="XMLID_1_" x1="183.607" x2="58.777" y1="8.897" y2="191.462" gradientUnits="userSpaceOnUse"><stop style="stop-color:#fff" id="stop159" offset="0"/><stop style="stop-color:red" id="stop160" offset="1"/></linearGradient><radialGradient id="XMLID_2_" cx="121.448" cy="247.774" r="163.827" fx="121.448" fy="247.774" gradientUnits="userSpaceOnUse"><stop style="stop-color:#ca002d" id="stop166" offset="0"/><stop style="stop-color:red" id="stop167" offset="1"/></radialGradient><radialGradient id="radialGradient6" cx="121.448" cy="247.774" r="163.827" fx="121.448" fy="247.774" gradientTransform="matrix(0.921905,0,0,0.921905,9.95315,9.779038)" gradientUnits="userSpaceOnUse" xlink:href="#XMLID_2_"/><linearGradient id="linearGradient7" x1="183.607" x2="58.777" y1="8.897" y2="191.462" gradientTransform="matrix(0.921905,0,0,0.921905,9.95315,9.779038)" gradientUnits="userSpaceOnUse" xlink:href="#XMLID_1_"/><linearGradient id="linearGradient2799" x1="128.189" x2="189.934" y1="86.2" y2="206.335" gradientTransform="matrix(1.44542,0,0,1.44542,-127.1499,-108.5803)" gradientUnits="userSpaceOnUse" xlink:href="#linearGradient2793"/><linearGradient id="linearGradient5091" x1="134.9" x2="134.9" y1="53.314" y2="194.279" gradientTransform="matrix(0.978618,0,0,0.978618,2.743695,2.790816)" gradientUnits="userSpaceOnUse" xlink:href="#linearGradient5085"/><linearGradient id="linearGradient2877" x1="113.844" x2="113.844" y1="76.005" y2="101.192" gradientTransform="matrix(0.194882,0,0,0.198013,-1.586366,-2.486249)" gradientUnits="userSpaceOnUse" xlink:href="#linearGradient2871"/><linearGradient id="linearGradient2863" x1="17.033" x2="56.61" y1="38.662" y2="108.225" gradientTransform="matrix(0.183689,0,0,0.167564,-1.078615,-0.232065)" gradientUnits="userSpaceOnUse" xlink:href="#linearGradient2857"/><linearGradient id="linearGradient2849" x1="22.532" x2="49.017" y1="95.898" y2="27.31" gradientTransform="matrix(0.226543,0,0,0.210107,0.132019,-2.257696)" gradientUnits="userSpaceOnUse" xlink:href="#linearGradient8158"/><linearGradient id="linearGradient2845" x1="29.54" x2="7.034" y1="74.339" y2="73.22" gradientTransform="matrix(0.24695,0,0,0.193484,-0.629426,-1.664162)" gradientUnits="userSpaceOnUse" xlink:href="#linearGradient5098"/><linearGradient id="linearGradient2843" x1="42.138" x2="42.138" y1="68.161" y2="105.102" gradientTransform="matrix(0.247446,0,0,0.193095,-0.629426,-2.087312)" gradientUnits="userSpaceOnUse" xlink:href="#linearGradient2865"/><linearGradient id="linearGradient2840" x1="30.223" x2="30.81" y1="28.559" y2="95.257" gradientTransform="matrix(0.292708,0,0,0.161623,-0.81816,-1.345849)" gradientUnits="userSpaceOnUse" xlink:href="#linearGradient5866"/><linearGradient id="linearGradient2837" x1="34.212" x2="37.014" y1="28.907" y2="52.198" gradientTransform="matrix(0.406742,0,0,0.135418,-0.698809,-3.393109)" gradientUnits="userSpaceOnUse" xlink:href="#linearGradient10475"/><linearGradient id="linearGradient1363" x1="34.212" x2="37.014" y1="28.907" y2="52.198" gradientTransform="matrix(1.830301,0,0,0.546358,1.872959e-17,4)" gradientUnits="userSpaceOnUse" xlink:href="#linearGradient10475"/><linearGradient id="linearGradient1361" x1="30.223" x2="30.81" y1="28.559" y2="95.257" gradientTransform="matrix(1.311889,0,0,0.76226,1.872959e-17,6)" gradientUnits="userSpaceOnUse" xlink:href="#linearGradient5866"/><linearGradient id="linearGradient1359" x1="29.54" x2="7.034" y1="74.339" y2="73.22" gradientTransform="matrix(1.093489,0,0,0.914504,1.872959e-17,6)" gradientUnits="userSpaceOnUse" xlink:href="#linearGradient5098"/><linearGradient id="linearGradient1357" x1="39.661" x2="41.862" y1="113.422" y2="43.167" gradientTransform="matrix(1.095691,0,0,0.912666,1.872959e-17,4)" gradientUnits="userSpaceOnUse" xlink:href="#linearGradient10465"/><linearGradient id="linearGradient1355" x1="22.532" x2="49.017" y1="95.898" y2="27.31" gradientTransform="matrix(1.019804,0,0,0.980581,1.872959e-17,6)" gradientUnits="userSpaceOnUse" xlink:href="#linearGradient8158"/><linearGradient id="linearGradient1353" x1="42.722" x2="62.504" y1="178.638" y2="157.023" gradientTransform="matrix(1.306581,0,0,0.629477,15.21832,-1.158036e-15)" gradientUnits="userSpaceOnUse" xlink:href="#linearGradient11317"/><radialGradient id="radialGradient1351" cx="24.735" cy="210.29" r="20.929" fx="24.735" fy="210.29" gradientTransform="scale(2.110067,0.473919)" gradientUnits="userSpaceOnUse" xlink:href="#linearGradient10457"/><linearGradient id="linearGradient5098"><stop style="stop-color:#ae5b00;stop-opacity:1" id="stop5100" offset="0"/><stop style="stop-color:#ae5b00;stop-opacity:0" id="stop5102" offset="1"/></linearGradient><linearGradient id="linearGradient5866"><stop style="stop-color:#fff;stop-opacity:.61458331" id="stop5868" offset="0"/><stop style="stop-color:#fff;stop-opacity:0" id="stop5870" offset="1"/></linearGradient><linearGradient id="linearGradient8158"><stop style="stop-color:#000;stop-opacity:.73958331" id="stop8160" offset="0"/><stop style="stop-color:#000;stop-opacity:0" id="stop8162" offset="1"/></linearGradient><linearGradient id="linearGradient10457"><stop style="stop-color:#000;stop-opacity:.32291666" id="stop10459" offset="0"/><stop style="stop-color:#000;stop-opacity:0" id="stop10461" offset="1"/></linearGradient><linearGradient id="linearGradient10465"><stop style="stop-color:#ffa740;stop-opacity:1" id="stop10467" offset="0"/><stop style="stop-color:#d57827;stop-opacity:1" id="stop10469" offset="1"/></linearGradient><linearGradient id="linearGradient10475"><stop style="stop-color:#fff;stop-opacity:1" id="stop10477" offset="0"/><stop style="stop-color:#fff;stop-opacity:0" id="stop10479" offset="1"/></linearGradient><linearGradient id="linearGradient11317"><stop style="stop-color:#000;stop-opacity:.48958334" id="stop11319" offset="0"/><stop style="stop-color:#000;stop-opacity:0" id="stop11321" offset="1"/></linearGradient><linearGradient id="linearGradient2857"><stop id="stop2859" offset="0" style="stop-color:white;stop-opacity:1"/><stop id="stop2861" offset="1" style="stop-color:white;stop-opacity:.21960784"/></linearGradient><linearGradient id="linearGradient2865"><stop id="stop2867" offset="0" style="stop-color:#ffa740;stop-opacity:1"/><stop id="stop2869" offset="1" style="stop-color:#ca6b18;stop-opacity:1"/></linearGradient><linearGradient id="linearGradient2871"><stop id="stop2873" offset="0" style="stop-color:#ffa740;stop-opacity:1"/><stop id="stop2875" offset="1" style="stop-color:#bf731a;stop-opacity:1"/></linearGradient><filter id="filter4509" color-interpolation-filters="sRGB"><feGaussianBlur id="feGaussianBlur4511" result="result91" stdDeviation="5"/><feComposite id="feComposite4513" in="SourceGraphic" in2="result91" operator="over" result="fbSourceGraphic"/><feColorMatrix id="feColorMatrix4515" in="fbSourceGraphic" result="fbSourceGraphicAlpha" values="0 0 0 -1 0 0 0 0 -1 0 0 0 0 -1 0 0 0 0 1 0"/><feGaussianBlur id="feGaussianBlur4517" in="fbSourceGraphic" result="result8" stdDeviation="10"/><feComposite id="feComposite4519" in="fbSourceGraphic" in2="result8" operator="in" result="result6"/><feComposite id="feComposite4521" in2="result6" operator="in" result="result11"/><feFlood id="feFlood4523" flood-color="#FFDE55" flood-opacity="1" in="result11" result="result10"/><feBlend id="feBlend4525" in="result11" in2="result10" mode="normal" result="result12"/><feComposite id="feComposite4527" in="result12" in2="fbSourceGraphic" operator="in" result="result2"/></filter></defs><g id="layer1-8" transform="matrix(4.7185329,0,0,4.7185329,11.64771,8.4400419)" style="filter:url(#filter4509)"><path style="opacity:.60792954;fill:url(#radialGradient1351);fill-opacity:1;stroke:none" id="path9697" d="m 96.354244,99.660515 c 0,5.478015 -19.772162,9.918815 -44.162361,9.918815 -24.390198,0 -44.1623611,-4.4408 -44.1623611,-9.918815 0,-5.478013 19.7721631,-9.91882 44.1623611,-9.91882 24.390199,0 44.162361,4.440807 44.162361,9.91882 z" transform="matrix(0.216385,0.03732304,-0.03736766,0.216126,3.189743,-4.191069)"/><path style="fill:url(#linearGradient2877);fill-opacity:1;fill-rule:evenodd;stroke:#833800;stroke-width:1.0047853;stroke-linecap:round;stroke-linejoin:round;stroke-miterlimit:4;stroke-opacity:1;stroke-dasharray:none" id="path2055" d="M 16.474002,1.5023929 10.556538,2.0374705 9.8428392,3.79759 3.4888407,4.3256255 3.3849043,5.6562784 0.50239278,5.8111674 c 0,9.4352826 1.06159782,11.2932056 1.88471942,11.9195266 l 16.2834178,2.766907 0,-0.007 0.05543,0.007 c 1.243748,0 2.771646,-11.2771591 2.771646,-17.6645572 L 17.347069,3.1780275 16.474002,1.5023929 z"/><path style="fill:#fff;fill-opacity:1;fill-rule:evenodd;stroke:#dcdcdc;stroke-width:.98299998;stroke-linecap:butt;stroke-linejoin:miter;stroke-miterlimit:4;stroke-opacity:1;stroke-dasharray:none" id="path3578" d="M 5.0145,5.1042624 4.7168166,15.385648 18.062963,18.508503 c 0.79226,-4.555619 2.00436,-7.823814 2.133399,-14.4131633 L 5.0145,5.1042624 z"/><path style="fill:url(#linearGradient2849);fill-opacity:1;fill-rule:evenodd;stroke:none" id="path7390" d="M 4.8011502,4.9278201 4.4863777,15.756695 18.21846,19 C 19.052334,15.281939 20.417873,9.334932 20.426804,3.8651723 L 4.8011502,4.9278201 z"/><path style="fill:#000;fill-opacity:.15999995;fill-rule:evenodd;stroke:none" id="path8166" d="M 18.433577,6.6748283 C 18.085322,11.007565 17.895185,16.643913 18.551459,19.987089 L 16.041565,19.393563 14.331935,6.7864963 18.433577,6.6748283 z"/><path style="fill:url(#linearGradient2843);fill-opacity:1;fill-rule:evenodd;stroke:url(#linearGradient2845);stroke-width:1.00748849;stroke-linecap:round;stroke-linejoin:round;stroke-miterlimit:4;stroke-opacity:1;stroke-dasharray:none" id="path1293" d="M 0.97186232,6.3224477 16.619099,5.5058945 C 16.998998,10.406308 16.948567,16.209225 18.78412,19.496257 L 2.7940122,17.017483 C 1.2178255,14.522107 1.1550299,10.437507 0.97186232,6.3224477 z"/><path style="opacity:.52719667;fill:url(#linearGradient2840);fill-opacity:1;fill-rule:evenodd;stroke:none" id="path5106" d="M 0.73568925,6.6333353 C 5.9171158,6.4163483 10.914696,6.1818903 16.096122,5.9649033 16.364023,9.7418883 16.582898,12.400743 17.144951,15.572075 10.681342,11.332502 6.6992984,9.5535133 1.8691554,14.176978 1.4300513,11.656609 1.1747929,9.1537043 0.73568925,6.6333353 z"/><path style="fill:url(#linearGradient2837);fill-opacity:1;fill-rule:evenodd;stroke:none" id="path10473" d="m 10.11241,4.3334483 0.734744,-1.873104 5.405609,-0.468277 0.892188,1.638967 -7.032541,0.702414 z"/><path id="path1961" d="M 3.2425822,16.580111 C 2.4607116,16.453348 1.6121239,14.604214 1.4976806,7.1099442 L 15.794024,6.4976779 C 15.902372,11.071657 16.347602,16.53256 17.502313,18.502315 L 3.2425822,16.580111 z" style="fill:none;stroke:url(#linearGradient2863);stroke-width:.99536246;stroke-linecap:butt;stroke-linejoin:miter;stroke-miterlimit:4;stroke-opacity:.89699557;stroke-dasharray:none"/></g></svg>